<?xml version="1.0" encoding="utf-8"?>
<!-- Generator: Adobe Illustrator 14.0.0, SVG Export Plug-In . SVG Version: 6.00 Build 43363)  -->
<!DOCTYPE svg PUBLIC "-//W3C//DTD SVG 1.1//EN" "http://www.w3.org/Graphics/SVG/1.1/DTD/svg11.dtd">
<svg version="1.1" id="Layer_1" xmlns="http://www.w3.org/2000/svg" xmlns:xlink="http://www.w3.org/1999/xlink" x="0px" y="0px"
	 width="32px" height="288px" viewBox="0 0 32 288" enable-background="new 0 0 32 288" xml:space="preserve">
<g>
	<defs>
		<rect id="SVGID_1_" width="32" height="288"/>
	</defs>
	<clipPath id="SVGID_2_">
		<use xlink:href="#SVGID_1_"  overflow="visible"/>
	</clipPath>
	<path clip-path="url(#SVGID_2_)" fill-rule="evenodd" clip-rule="evenodd" fill="#0F1C1F" d="M15,286H1c-0.552,0-1-0.448-1-1v-8h16
		v8C16,285.552,15.552,286,15,286 M8.757,279.351C8.386,279.133,7.96,279,7.5,279c-1.381,0-2.5,1.119-2.5,2.5s1.119,2.5,2.5,2.5
		c0.46,0,0.886-0.133,1.257-0.351C8.29,283.055,8,282.315,8,281.5S8.29,279.945,8.757,279.351 M11.5,279c-1.381,0-2.5,1.119-2.5,2.5
		s1.119,2.5,2.5,2.5s2.5-1.119,2.5-2.5S12.881,279,11.5,279 M0,275c0-0.552,0.448-1,1-1h14c0.552,0,1,0.448,1,1v1H0V275z"/>
	<path clip-path="url(#SVGID_2_)" fill-rule="evenodd" clip-rule="evenodd" fill="#FFFFFF" d="M31,286H17c-0.552,0-1-0.448-1-1v-8
		h16v8C32,285.552,31.552,286,31,286 M24.757,279.351C24.386,279.133,23.96,279,23.5,279c-1.381,0-2.5,1.119-2.5,2.5
		s1.119,2.5,2.5,2.5c0.46,0,0.886-0.133,1.257-0.351C24.29,283.055,24,282.315,24,281.5S24.29,279.945,24.757,279.351 M27.5,279
		c-1.381,0-2.5,1.119-2.5,2.5s1.119,2.5,2.5,2.5s2.5-1.119,2.5-2.5S28.881,279,27.5,279 M16,275c0-0.552,0.448-1,1-1h14
		c0.552,0,1,0.448,1,1v1H16V275z"/>
	<path clip-path="url(#SVGID_2_)" fill-rule="evenodd" clip-rule="evenodd" fill="#0F1C1F" d="M8,272c-4.418,0-8-3.582-8-8
		s3.582-8,8-8s8,3.582,8,8S12.417,272,8,272 M8,258c-3.313,0-6,2.687-6,6s2.687,6,6,6c3.314,0,6-2.687,6-6S11.313,258,8,258
		 M10.829,266.828c-0.391,0.392-1.024,0.392-1.415,0L8,265.414l-1.414,1.414c-0.39,0.392-1.024,0.392-1.414,0
		c-0.39-0.391-0.39-1.023,0-1.414L6.585,264l-1.414-1.414c-0.39-0.391-0.39-1.024,0-1.414c0.39-0.391,1.024-0.391,1.414,0L8,262.586
		l1.414-1.414c0.391-0.391,1.024-0.391,1.415,0c0.391,0.39,0.391,1.023,0,1.414L9.414,264l1.415,1.414
		C11.22,265.805,11.22,266.438,10.829,266.828"/>
	<path clip-path="url(#SVGID_2_)" fill-rule="evenodd" clip-rule="evenodd" fill="#FFFFFF" d="M24,272c-4.418,0-8-3.582-8-8
		s3.583-8,8-8s8,3.582,8,8S28.418,272,24,272 M24,258c-3.313,0-6,2.687-6,6s2.687,6,6,6s6-2.687,6-6S27.313,258,24,258
		 M26.828,266.828c-0.391,0.392-1.023,0.392-1.414,0L24,265.414l-1.414,1.414c-0.391,0.392-1.024,0.392-1.414,0
		c-0.391-0.391-0.391-1.023,0-1.414L22.586,264l-1.414-1.414c-0.391-0.391-0.391-1.024,0-1.414c0.39-0.391,1.023-0.391,1.414,0
		L24,262.586l1.414-1.414c0.391-0.391,1.023-0.391,1.414,0c0.392,0.39,0.392,1.023,0,1.414L25.414,264l1.414,1.414
		C27.22,265.805,27.22,266.438,26.828,266.828"/>
	<path clip-path="url(#SVGID_2_)" fill-rule="evenodd" clip-rule="evenodd" fill="#0F1C1F" d="M16,248c0-4.418-3.582-8-8-8
		s-8,3.582-8,8s3.582,8,8,8S16,252.418,16,248 M2,248c0-3.313,2.687-6,6-6s6,2.687,6,6s-2.687,6-6,6S2,251.313,2,248"/>
	<path clip-path="url(#SVGID_2_)" fill-rule="evenodd" clip-rule="evenodd" fill="#0F1C1F" d="M11.708,248.707
		c0.195-0.195,0.293-0.451,0.293-0.707s-0.098-0.512-0.293-0.707l-2-2c-0.286-0.286-0.717-0.371-1.091-0.217
		C8.244,245.23,8,245.596,8,246v1H5c-0.553,0-1,0.447-1,1s0.447,1,1,1h3v1c0,0.404,0.244,0.77,0.617,0.924
		c0.375,0.154,0.805,0.068,1.091-0.217L11.708,248.707z"/>
	<path clip-path="url(#SVGID_2_)" fill-rule="evenodd" clip-rule="evenodd" fill="#FFFFFF" d="M32,248c0-4.418-3.582-8-8-8
		s-8,3.582-8,8s3.582,8,8,8S32,252.418,32,248 M18,248c0-3.313,2.687-6,6-6s6,2.687,6,6s-2.687,6-6,6S18,251.313,18,248"/>
	<path clip-path="url(#SVGID_2_)" fill-rule="evenodd" clip-rule="evenodd" fill="#FFFFFF" d="M27.708,248.707
		c0.195-0.195,0.293-0.451,0.293-0.707s-0.098-0.512-0.293-0.707l-2-2c-0.286-0.286-0.717-0.371-1.091-0.217
		C24.244,245.23,24,245.596,24,246v1h-3c-0.553,0-1,0.447-1,1s0.447,1,1,1h3v1c0,0.404,0.244,0.77,0.617,0.924
		c0.375,0.154,0.805,0.068,1.091-0.217L27.708,248.707z"/>
	<path clip-path="url(#SVGID_2_)" fill-rule="evenodd" clip-rule="evenodd" fill="#0F1C1F" d="M7.631,234.826
		c-0.391,0.391-1.024,0.391-1.414,0l-2.122-2.121c-0.39-0.39-0.39-1.023,0-1.414c0.391-0.391,1.024-0.391,1.414,0l1.415,1.414
		l3.535-3.535c0.391-0.391,1.024-0.391,1.414,0c0.391,0.391,0.391,1.023,0,1.414L7.631,234.826z"/>
	<path clip-path="url(#SVGID_2_)" fill-rule="evenodd" clip-rule="evenodd" fill="#0F1C1F" d="M16,232c0-4.418-3.582-8-8-8
		s-8,3.582-8,8s3.582,8,8,8S16,236.418,16,232 M2,232c0-3.313,2.687-6,6-6s6,2.687,6,6s-2.687,6-6,6S2,235.313,2,232"/>
	<path clip-path="url(#SVGID_2_)" fill-rule="evenodd" clip-rule="evenodd" fill="#FFFFFF" d="M23.631,234.826
		c-0.391,0.391-1.024,0.391-1.414,0l-2.122-2.121c-0.39-0.39-0.39-1.023,0-1.414c0.392-0.391,1.024-0.391,1.414,0l1.415,1.414
		l3.535-3.535c0.391-0.391,1.023-0.391,1.414,0s0.391,1.023,0,1.414L23.631,234.826z"/>
	<path clip-path="url(#SVGID_2_)" fill-rule="evenodd" clip-rule="evenodd" fill="#FFFFFF" d="M32,232c0-4.418-3.582-8-8-8
		s-8,3.582-8,8s3.582,8,8,8S32,236.418,32,232 M18,232c0-3.313,2.687-6,6-6s6,2.687,6,6s-2.687,6-6,6S18,235.313,18,232"/>
	<path clip-path="url(#SVGID_2_)" fill="#FFFFFF" d="M15.533,221.412l-3.514-3.515C12.63,216.906,13,215.75,13,214.5
		c0-3.59-2.91-6.5-6.5-6.5S0,210.91,0,214.5s2.91,6.5,6.5,6.5c1.25,0,2.406-0.37,3.397-0.981l3.515,3.515
		c0.586,0.586,1.535,0.586,2.121,0C16.119,222.947,16.119,221.998,15.533,221.412 M6.5,219c-2.485,0-4.5-2.015-4.5-4.5
		s2.015-4.5,4.5-4.5s4.5,2.015,4.5,4.5S8.985,219,6.5,219"/>
	<path clip-path="url(#SVGID_2_)" fill="#FFFFFF" d="M31.533,221.412l-3.515-3.515C28.63,216.906,29,215.75,29,214.5
		c0-3.59-2.91-6.5-6.5-6.5s-6.5,2.91-6.5,6.5s2.91,6.5,6.5,6.5c1.25,0,2.406-0.37,3.397-0.981l3.515,3.515
		c0.586,0.586,1.535,0.586,2.121,0S32.119,221.998,31.533,221.412 M22.5,219c-2.485,0-4.5-2.015-4.5-4.5s2.015-4.5,4.5-4.5
		s4.5,2.015,4.5,4.5S24.985,219,22.5,219"/>
	<path clip-path="url(#SVGID_2_)" fill="#FFFFFF" d="M31.121,193.344C30.785,193.117,30.395,193,30,193
		c-0.251,0-0.503,0.047-0.743,0.143l-5,2c-0.094,0.038-0.171,0.102-0.257,0.151c-0.086-0.05-0.163-0.113-0.257-0.151l-5-2
		C18.503,193.047,18.251,193,18,193c-0.394,0-0.786,0.117-1.121,0.344C16.329,193.716,16,194.336,16,195v9
		c0,0.817,0.498,1.554,1.257,1.857l5,2C22.497,207.953,22.749,208,23,208c0.35,0,0.691-0.106,1-0.286c0.309,0.18,0.65,0.286,1,0.286
		c0.251,0,0.503-0.047,0.743-0.143l5-2C31.502,205.554,32,204.817,32,204v-9C32,194.336,31.671,193.716,31.121,193.344 M23,206l-5-2
		v-9l5,2V206z M30,204l-5,2v-9l5-2V204z"/>
	<path clip-path="url(#SVGID_2_)" fill="#0F1C1F" d="M15.121,193.344C14.785,193.117,14.395,193,14,193
		c-0.251,0-0.503,0.047-0.743,0.143l-5,2c-0.094,0.038-0.171,0.102-0.257,0.151c-0.086-0.05-0.163-0.113-0.257-0.151l-5-2
		C2.503,193.047,2.251,193,2,193c-0.394,0-0.786,0.117-1.121,0.344C0.329,193.716,0,194.336,0,195v9
		c0,0.817,0.498,1.554,1.257,1.857l5,2C6.497,207.953,6.749,208,7,208c0.35,0,0.691-0.106,1-0.286C8.309,207.894,8.65,208,9,208
		c0.251,0,0.503-0.047,0.743-0.143l5-2C15.502,205.554,16,204.817,16,204v-9C16,194.336,15.671,193.716,15.121,193.344 M7,206l-5-2
		v-9l5,2V206z M14,204l-5,2v-9l5-2V204z"/>
	<path clip-path="url(#SVGID_2_)" fill="#FFFFFF" d="M24,192c-4.418,0-8-3.582-8-8s3.582-8,8-8s8,3.582,8,8S28.418,192,24,192
		 M24,178c-3.313,0-6,2.687-6,6c0,3.314,2.687,6,6,6s6-2.686,6-6C30,180.687,27.313,178,24,178 M24,189
		c-1.077,0-2.068-0.348-2.885-0.928C21.043,187.896,21,187.703,21,187.5c0.154-0.917,0.771-1.688,1.557-2.122
		C22.213,185.02,22,184.535,22,184v-1c0-1.104,0.896-2,2-2s2,0.896,2,2v1c0,0.535-0.213,1.02-0.557,1.378
		c0.785,0.436,1.402,1.205,1.557,2.122c0,0.203-0.043,0.396-0.115,0.572C26.068,188.652,25.077,189,24,189"/>
	<path clip-path="url(#SVGID_2_)" fill="#0F1C1F" d="M8,192c-4.418,0-8-3.582-8-8s3.582-8,8-8s8,3.582,8,8S12.418,192,8,192 M8,178
		c-3.313,0-6,2.687-6,6c0,3.314,2.687,6,6,6s6-2.686,6-6C14,180.687,11.313,178,8,178 M8,189c-1.077,0-2.068-0.348-2.885-0.928
		C5.043,187.896,5,187.703,5,187.5c0.154-0.917,0.771-1.688,1.557-2.122C6.213,185.02,6,184.535,6,184v-1c0-1.104,0.896-2,2-2
		s2,0.896,2,2v1c0,0.535-0.213,1.02-0.557,1.378c0.786,0.436,1.403,1.205,1.557,2.122c0,0.203-0.043,0.396-0.115,0.572
		C10.068,188.652,9.077,189,8,189"/>
	<rect x="17" y="161" clip-path="url(#SVGID_2_)" fill-rule="evenodd" clip-rule="evenodd" fill="#FFFFFF" width="4" height="4"/>
	<rect x="22" y="161" clip-path="url(#SVGID_2_)" fill-rule="evenodd" clip-rule="evenodd" fill="#FFFFFF" width="4" height="4"/>
	<rect x="27" y="161" clip-path="url(#SVGID_2_)" fill-rule="evenodd" clip-rule="evenodd" fill="#FFFFFF" width="4" height="4"/>
	<rect x="27" y="166" clip-path="url(#SVGID_2_)" fill-rule="evenodd" clip-rule="evenodd" fill="#FFFFFF" width="4" height="4"/>
	<rect x="27" y="171" clip-path="url(#SVGID_2_)" fill-rule="evenodd" clip-rule="evenodd" fill="#FFFFFF" width="4" height="4"/>
	<rect x="22" y="171" clip-path="url(#SVGID_2_)" fill-rule="evenodd" clip-rule="evenodd" fill="#FFFFFF" width="4" height="4"/>
	<rect x="17" y="171" clip-path="url(#SVGID_2_)" fill-rule="evenodd" clip-rule="evenodd" fill="#FFFFFF" width="4" height="4"/>
	<rect x="17" y="166" clip-path="url(#SVGID_2_)" fill-rule="evenodd" clip-rule="evenodd" fill="#FFFFFF" width="4" height="4"/>
	<rect x="22" y="166" clip-path="url(#SVGID_2_)" fill-rule="evenodd" clip-rule="evenodd" fill="#FFFFFF" width="4" height="4"/>
	<rect x="1" y="161" clip-path="url(#SVGID_2_)" fill-rule="evenodd" clip-rule="evenodd" fill="#0F1C1F" width="4" height="4"/>
	<rect x="6" y="161" clip-path="url(#SVGID_2_)" fill-rule="evenodd" clip-rule="evenodd" fill="#0F1C1F" width="4" height="4"/>
	<rect x="11" y="161" clip-path="url(#SVGID_2_)" fill-rule="evenodd" clip-rule="evenodd" fill="#0F1C1F" width="4" height="4"/>
	<rect x="11" y="166" clip-path="url(#SVGID_2_)" fill-rule="evenodd" clip-rule="evenodd" fill="#0F1C1F" width="4" height="4"/>
	<rect x="11" y="171" clip-path="url(#SVGID_2_)" fill-rule="evenodd" clip-rule="evenodd" fill="#0F1C1F" width="4" height="4"/>
	<rect x="6" y="171" clip-path="url(#SVGID_2_)" fill-rule="evenodd" clip-rule="evenodd" fill="#0F1C1F" width="4" height="4"/>
	<rect x="1" y="171" clip-path="url(#SVGID_2_)" fill-rule="evenodd" clip-rule="evenodd" fill="#0F1C1F" width="4" height="4"/>
	<rect x="1" y="166" clip-path="url(#SVGID_2_)" fill-rule="evenodd" clip-rule="evenodd" fill="#0F1C1F" width="4" height="4"/>
	<rect x="6" y="166" clip-path="url(#SVGID_2_)" fill-rule="evenodd" clip-rule="evenodd" fill="#0F1C1F" width="4" height="4"/>
	<path clip-path="url(#SVGID_2_)" fill="#0F1C1F" d="M10,150c0,0-3.94-0.058-6.578,1.652C0.784,153.364,0,157,0,157
		s2.566-2.72,4.9-3.6c2.554-0.962,5.1-0.4,5.1-0.4v3l6-4l-6-5V150z"/>
	<path clip-path="url(#SVGID_2_)" fill="#FFFFFF" d="M26,150c0,0-3.94-0.058-6.578,1.652C16.784,153.364,16,157,16,157
		s2.566-2.72,4.9-3.6c2.554-0.962,5.1-0.4,5.1-0.4v3l6-4l-6-5V150z"/>
	<polygon clip-path="url(#SVGID_2_)" fill-rule="evenodd" clip-rule="evenodd" fill="#0F1C1F" points="15,134 15,129 10,129 
		11.5,130.5 9,133 11,135 13.5,132.5 	"/>
	<polygon clip-path="url(#SVGID_2_)" fill-rule="evenodd" clip-rule="evenodd" fill="#0F1C1F" points="7,139 5,137 2.5,139.5 1,138 
		1,143 6,143 4.5,141.5 	"/>
	<polygon clip-path="url(#SVGID_2_)" fill-rule="evenodd" clip-rule="evenodd" fill="#FFFFFF" points="31,134 31,129 26,129 
		27.5,130.5 25,133 27,135 29.5,132.5 	"/>
	<polygon clip-path="url(#SVGID_2_)" fill-rule="evenodd" clip-rule="evenodd" fill="#FFFFFF" points="23,139 21,137 18.5,139.5 
		17,138 17,143 22,143 20.5,141.5 	"/>
	<polygon clip-path="url(#SVGID_2_)" fill="#0F1C1F" points="3,125 13,120 3,115 	"/>
	<polygon clip-path="url(#SVGID_2_)" fill="#FFFFFF" points="19,125 29,120 19,115 	"/>
	<path clip-path="url(#SVGID_2_)" fill="#FFFFFF" d="M20.364,78.615c0.384,0.388,1.004,0.388,1.388,0l5.884-5.964
		c0.384-0.388,0.384-1.017,0-1.405l-5.884-5.964c-0.191-0.194-0.443-0.291-0.694-0.291s-0.502,0.097-0.693,0.291
		c-0.384,0.389-0.384,1.018,0,1.406l5.191,5.26l-5.191,5.261C19.98,77.598,19.98,78.227,20.364,78.615"/>
	<path clip-path="url(#SVGID_2_)" fill="#0F1C1F" d="M4.365,78.615c0.383,0.388,1.003,0.388,1.387,0l5.884-5.964
		c0.384-0.388,0.384-1.017,0-1.405l-5.884-5.964c-0.191-0.194-0.443-0.291-0.694-0.291s-0.502,0.097-0.693,0.291
		c-0.384,0.389-0.384,1.018,0,1.406l5.191,5.26l-5.191,5.261C3.98,77.598,3.98,78.227,4.365,78.615"/>
	<path clip-path="url(#SVGID_2_)" fill="#FFFFFF" d="M27.724,81.293c-0.391-0.391-1.023-0.391-1.415,0l-6.002,6.004
		c-0.39,0.391-0.39,1.024,0,1.415l6.002,6.004c0.195,0.195,0.452,0.293,0.708,0.293s0.512-0.098,0.707-0.293
		c0.392-0.391,0.392-1.025,0-1.415l-5.294-5.297l5.294-5.296C28.115,82.317,28.115,81.684,27.724,81.293"/>
	<path clip-path="url(#SVGID_2_)" fill="#0F1C1F" d="M11.724,81.293c-0.391-0.391-1.023-0.391-1.415,0l-6.002,6.004
		c-0.39,0.391-0.39,1.024,0,1.415l6.002,6.004c0.195,0.195,0.452,0.293,0.708,0.293s0.512-0.098,0.707-0.293
		c0.392-0.391,0.392-1.025,0-1.415L6.43,88.004l5.294-5.296C12.116,82.317,12.116,81.684,11.724,81.293"/>
	<path clip-path="url(#SVGID_2_)" fill-rule="evenodd" clip-rule="evenodd" fill="#FFFFFF" d="M1.438,60.917l11.481-11.481
		c0.453-0.453,1.188-0.453,1.641,0c0.452,0.453,0.452,1.187,0,1.64L3.078,62.559c-0.453,0.452-1.187,0.452-1.64,0
		C0.985,62.105,0.985,61.371,1.438,60.917"/>
	<path clip-path="url(#SVGID_2_)" fill-rule="evenodd" clip-rule="evenodd" fill="#FFFFFF" d="M3.078,49.437l11.481,11.481
		c0.453,0.453,0.453,1.188,0,1.641c-0.452,0.452-1.187,0.452-1.64,0L1.438,51.077c-0.453-0.453-0.453-1.187,0-1.64
		S2.625,48.983,3.078,49.437"/>
	<path clip-path="url(#SVGID_2_)" fill-rule="evenodd" clip-rule="evenodd" fill="#FFFFFF" d="M17.438,60.917l11.48-11.481
		c0.453-0.453,1.188-0.453,1.641,0s0.452,1.187,0,1.64L19.078,62.559c-0.453,0.452-1.188,0.452-1.64,0
		C16.985,62.105,16.985,61.371,17.438,60.917"/>
	<path clip-path="url(#SVGID_2_)" fill-rule="evenodd" clip-rule="evenodd" fill="#FFFFFF" d="M19.078,49.437L30.56,60.917
		c0.452,0.453,0.452,1.188,0,1.641c-0.452,0.452-1.188,0.452-1.641,0l-11.48-11.482c-0.453-0.453-0.453-1.187,0-1.64
		C17.891,48.983,18.625,48.983,19.078,49.437"/>
	<path clip-path="url(#SVGID_2_)" fill-rule="evenodd" clip-rule="evenodd" fill="#FFFFFF" d="M1,39h14c0.552,0,1,0.448,1,1
		s-0.448,1-1,1H1c-0.552,0-1-0.448-1-1S0.448,39,1,39"/>
	<path clip-path="url(#SVGID_2_)" fill-rule="evenodd" clip-rule="evenodd" fill="#FFFFFF" d="M1,44h14c0.552,0,1,0.448,1,1
		s-0.448,1-1,1H1c-0.552,0-1-0.448-1-1S0.448,44,1,44"/>
	<path clip-path="url(#SVGID_2_)" fill-rule="evenodd" clip-rule="evenodd" fill="#FFFFFF" d="M1,34h14c0.552,0,1,0.448,1,1
		s-0.448,1-1,1H1c-0.552,0-1-0.448-1-1S0.448,34,1,34"/>
	<path clip-path="url(#SVGID_2_)" fill-rule="evenodd" clip-rule="evenodd" fill="#FFFFFF" d="M17,39h14c0.552,0,1,0.448,1,1
		s-0.448,1-1,1H17c-0.552,0-1-0.448-1-1S16.448,39,17,39"/>
	<path clip-path="url(#SVGID_2_)" fill-rule="evenodd" clip-rule="evenodd" fill="#FFFFFF" d="M17,44h14c0.552,0,1,0.448,1,1
		s-0.448,1-1,1H17c-0.552,0-1-0.448-1-1S16.448,44,17,44"/>
	<path clip-path="url(#SVGID_2_)" fill-rule="evenodd" clip-rule="evenodd" fill="#FFFFFF" d="M17,34h14c0.552,0,1,0.448,1,1
		s-0.448,1-1,1H17c-0.552,0-1-0.448-1-1S16.448,34,17,34"/>
	<path clip-path="url(#SVGID_2_)" fill="#FFFFFF" d="M29.432,21.141c1.421,0,2.573-1.152,2.573-2.573
		c0-1.42-1.152-2.573-2.573-2.573s-2.573,1.153-2.573,2.573c0,0.111,0.02,0.215,0.032,0.322l-6.521,3.277
		c-0.464-0.457-1.099-0.74-1.802-0.74c-1.42,0-2.573,1.152-2.573,2.572c0,1.421,1.153,2.575,2.573,2.575
		c0.718,0,1.366-0.296,1.833-0.771l6.493,3.287c-0.016,0.114-0.035,0.225-0.035,0.341c0,1.422,1.152,2.574,2.573,2.574
		s2.573-1.152,2.573-2.574c0-1.419-1.152-2.573-2.573-2.573c-0.726,0-1.379,0.304-1.846,0.788l-6.482-3.281
		c0.016-0.12,0.037-0.24,0.037-0.366c0-0.138-0.021-0.274-0.041-0.409l6.473-3.251C28.041,20.83,28.699,21.141,29.432,21.141"/>
	<path clip-path="url(#SVGID_2_)" fill="#0F1C1F" d="M13.432,21.141c1.421,0,2.573-1.152,2.573-2.573
		c0-1.42-1.152-2.573-2.573-2.573s-2.573,1.153-2.573,2.573c0,0.111,0.019,0.215,0.032,0.322L4.37,22.167
		c-0.464-0.457-1.099-0.74-1.802-0.74c-1.42,0-2.573,1.152-2.573,2.572c0,1.421,1.153,2.575,2.573,2.575
		c0.718,0,1.366-0.296,1.833-0.771l6.493,3.287c-0.016,0.114-0.035,0.225-0.035,0.341c0,1.422,1.152,2.574,2.573,2.574
		s2.573-1.152,2.573-2.574c0-1.419-1.152-2.573-2.573-2.573c-0.726,0-1.379,0.304-1.846,0.788l-6.482-3.281
		c0.016-0.12,0.037-0.24,0.037-0.366c0-0.138-0.021-0.274-0.041-0.409l6.473-3.251C12.041,20.83,12.7,21.141,13.432,21.141"/>
	<path clip-path="url(#SVGID_2_)" fill-rule="evenodd" clip-rule="evenodd" fill="#FFFFFF" d="M3,7h10c0.552,0,1,0.448,1,1
		s-0.448,1-1,1H3C2.448,9,2,8.552,2,8S2.448,7,3,7"/>
	<path clip-path="url(#SVGID_2_)" fill-rule="evenodd" clip-rule="evenodd" fill="#FFFFFF" d="M8,2c0.552,0,1,0.448,1,1v10
		c0,0.552-0.448,1-1,1s-1-0.448-1-1V3C7,2.448,7.448,2,8,2"/>
	<path clip-path="url(#SVGID_2_)" fill-rule="evenodd" clip-rule="evenodd" fill="#FFFFFF" d="M19,7h10c0.552,0,1,0.448,1,1
		s-0.448,1-1,1H19c-0.552,0-1-0.448-1-1S18.448,7,19,7"/>
	<path clip-path="url(#SVGID_2_)" fill-rule="evenodd" clip-rule="evenodd" fill="#FFFFFF" d="M24,2c0.552,0,1,0.448,1,1v10
		c0,0.552-0.448,1-1,1s-1-0.448-1-1V3C23,2.448,23.448,2,24,2"/>
	<path clip-path="url(#SVGID_2_)" fill-rule="evenodd" clip-rule="evenodd" fill="#0F1C1F" d="M8,112c-4.418,0-8-3.582-8-8
		s3.582-8,8-8s8,3.582,8,8S12.418,112,8,112 M8,98c-3.313,0-6,2.687-6,6s2.687,6,6,6s6-2.687,6-6S11.313,98,8,98 M11,105H9v2
		c0,0.552-0.448,1-1,1s-1-0.448-1-1v-2H5c-0.552,0-1-0.448-1-1s0.448-1,1-1h2v-2c0-0.552,0.448-1,1-1s1,0.448,1,1v2h2
		c0.552,0,1,0.448,1,1S11.552,105,11,105"/>
	<path clip-path="url(#SVGID_2_)" fill-rule="evenodd" clip-rule="evenodd" fill="#FFFFFF" d="M24,112c-4.418,0-8-3.582-8-8
		s3.582-8,8-8s8,3.582,8,8S28.418,112,24,112 M24,98c-3.313,0-6,2.687-6,6s2.687,6,6,6s6-2.687,6-6S27.313,98,24,98 M27,105h-2v2
		c0,0.552-0.448,1-1,1s-1-0.448-1-1v-2h-2c-0.552,0-1-0.448-1-1s0.448-1,1-1h2v-2c0-0.552,0.448-1,1-1s1,0.448,1,1v2h2
		c0.552,0,1,0.448,1,1S27.552,105,27,105"/>
</g>
</svg>
